HIERARCHY
ROOT hip
{
	OFFSET 0.000000 0.000000 0.000000 
	CHANNELS 6 Xposition Yposition Zposition Xrotation Zrotation Yrotation
	JOINT abdomen
	{
		OFFSET 0.000000 3.402643 0.000000 
		CHANNELS 3 Xrotation Zrotation Yrotation
		JOINT chest
		{
			OFFSET 0.000000 8.438565 -0.680529 
			CHANNELS 3 Xrotation Zrotation Yrotation
			JOINT neck
			{
				OFFSET 0.000000 10.207942 -0.272212 
				CHANNELS 3 Xrotation Zrotation Yrotation
				JOINT head
				{
					OFFSET 0.000000 3.130431 0.000000 
					CHANNELS 3 Xrotation Zrotation Yrotation
					End Site
					{
						OFFSET 0.000000 3.130435 0.000000 
					}
				}
			}
			JOINT lCollar
			{
				OFFSET 3.470700 6.669187 -0.816635 
				CHANNELS 3 Yrotation Zrotation Xrotation
				JOINT lShldr
				{
					OFFSET 3.198488 0.000000 0.000000 
					CHANNELS 3 Zrotation Yrotation Xrotation
					JOINT lForeArm
					{
						OFFSET 10.139888 0.000000 0.000000 
						CHANNELS 3 Yrotation Zrotation Xrotation
						JOINT lHand
						{
							OFFSET 8.370511 0.000000 0.000000 
							CHANNELS 3 Zrotation Yrotation Xrotation
							End Site
							{
								OFFSET 4.083176 0.000000 0.000000 
							}
						}
					}
				}
			}
			JOINT rCollar
			{
				OFFSET -3.470700 6.669187 -0.816635 
				CHANNELS 3 Yrotation Zrotation Xrotation
				JOINT rShldr
				{
					OFFSET -3.198488 0.000000 0.000000 
					CHANNELS 3 Zrotation Yrotation Xrotation
					JOINT rForeArm
					{
						OFFSET -10.139888 0.000000 0.000000 
						CHANNELS 3 Yrotation Zrotation Xrotation
						JOINT rHand
						{
							OFFSET -8.370511 0.000000 0.000000 
							CHANNELS 3 Zrotation Yrotation Xrotation
							End Site
							{
								OFFSET -4.083176 0.000000 0.000000 
							}
						}
					}
				}
			}
		}
	}
	JOINT lThigh
	{
		OFFSET 5.308129 -1.633274 1.361059 
		CHANNELS 3 Xrotation Zrotation Yrotation
		JOINT lShin
		{
			OFFSET -2.041588 -20.007561 0.000000 
			CHANNELS 3 Xrotation Zrotation Yrotation
			JOINT lFoot
			{
				OFFSET 0.000000 -19.190928 -1.224953 
				CHANNELS 3 Xrotation Yrotation Zrotation
				End Site
				{
					OFFSET 0.000000 -2.449906 4.627600 
				}
			}
		}
	}
	JOINT rThigh
	{
		OFFSET -5.308129 -1.633274 1.361059 
		CHANNELS 3 Xrotation Zrotation Yrotation
		JOINT rShin
		{
			OFFSET 2.041588 -20.007561 0.000000 
			CHANNELS 3 Xrotation Zrotation Yrotation
			JOINT rFoot
			{
				OFFSET 0.000000 -19.190928 -1.224953 
				CHANNELS 3 Xrotation Yrotation Zrotation
				End Site
				{
					OFFSET 0.000000 -2.449906 4.627600 
				}
			}
		}
	}
}
MOTION
Frames: 16
Frame Time: 0.050000
5.298311 51.779804 2.980660 4.712925 0.877068 -11.267518 4.404441 -1.866482 -3.006264 -3.093672 -3.675534 -4.890490 2.264981 0.489037 -0.133422 -4.427336 2.459661 15.619050 3.114328 -11.884625 0.868568 -64.758125 8.768196 -20.633442 -49.648663 -12.014750 -9.043552 6.269323 -4.584346 -28.473158 -2.530837 4.873293 10.133104 73.125214 17.433924 -4.068617 55.237183 14.678290 5.236395 -7.182289 2.843968 -2.882510 -27.512627 2.955415 -13.728241 34.562450 -5.281537 -3.925762 -12.145800 30.696806 -2.634590 -22.335892 -2.585855 11.053610 36.305759 0.128837 1.338341 -15.254681 -13.976095 5.648574 
6.755455 48.768124 8.759346 8.356751 -0.031853 -22.686708 6.472111 -2.224352 -3.633293 -2.856661 -4.510129 -7.151374 4.962589 0.129771 -0.111550 -6.125146 4.210170 33.808765 11.207687 -17.606760 3.099150 -57.712269 5.322572 -64.486984 -99.900093 -16.679804 -22.690189 1.389507 -4.094112 -41.889904 -4.403644 4.392248 10.209861 76.198166 23.416977 -7.375632 97.919197 18.874523 -11.817339 -12.534267 4.233949 -6.515308 -43.225899 10.945093 -15.433900 49.454044 -6.014511 -6.053865 -10.925383 38.006580 -9.561871 -27.316372 -4.536400 12.605314 50.700436 2.618391 2.570962 -27.482824 -13.247197 7.899519 
7.748235 46.467602 13.263695 11.256046 -0.754729 -32.656635 7.886330 -1.689661 1.893532 -3.202736 -3.918825 -3.789448 7.114000 0.052653 -0.137677 -7.175091 4.789653 43.417824 13.145123 -19.508343 2.960740 -50.737949 2.538209 -93.780273 -138.344040 -20.295080 -36.418327 -3.490308 -3.603878 -55.306648 -5.994595 4.261927 10.265726 78.796829 29.201029 -12.198061 130.358398 22.538027 -24.790089 -13.541774 2.624614 -10.604273 -53.317310 22.093649 -17.021896 57.114330 -6.785823 -7.038850 -6.521897 38.570732 -16.734234 -29.130604 -7.426875 14.137802 56.603951 4.356580 2.805033 -32.636112 -12.885049 12.260077 
7.878259 45.635773 15.123880 12.564396 -1.080204 -39.073475 7.994949 0.169524 16.899010 -4.417837 -1.044098 9.118278 8.094926 0.427739 -0.236092 -7.053165 3.380355 36.716072 4.382197 -14.858283 -1.217387 -44.287907 2.059887 -94.036514 -152.251617 -21.350796 -48.778107 -2.645513 -8.274399 -29.763115 -6.938240 4.761022 10.279463 80.211021 34.107651 -19.213480 141.600433 24.932209 -29.296654 -6.912568 -3.924985 -15.102158 -53.823799 25.691807 -15.914074 64.915924 -7.199578 -8.110106 -14.039593 41.134056 -15.269239 -29.839556 -8.641294 14.670435 57.452312 5.111742 2.567307 -33.370590 -10.295149 14.680127 
7.867807 45.569885 15.700884 12.961001 -1.178050 -42.829010 7.364059 1.340928 30.030659 -5.204864 1.624394 24.902313 8.397348 0.681224 -0.302752 -6.782788 1.915053 21.470001 -6.623133 -9.651569 -6.167953 -37.289349 7.659965 -77.192421 -152.641907 -19.020603 -57.991783 0.977335 -14.683151 10.807232 -7.477664 5.498011 10.271758 80.340149 38.200409 -26.401361 141.253510 26.568066 -29.082140 1.963491 -11.020267 -19.273050 -52.541878 27.328203 -15.630851 66.596428 -7.351830 -8.313100 -15.985057 43.620731 -15.565796 -30.245775 -8.872108 14.700076 56.888374 5.335997 2.382196 -33.136536 -7.074212 15.607963 
8.245129 45.409309 16.428244 13.297508 -1.261693 -45.314575 7.057363 0.101546 30.317730 -4.588008 1.381772 36.610649 8.645004 0.313633 -0.226811 -7.742385 2.793715 8.985718 -11.234373 -8.775896 -8.634243 -27.682308 12.747338 -61.220230 -142.638672 -15.661480 -59.141479 0.977300 -14.683200 10.807200 -7.960408 6.147165 10.264917 79.865326 41.350273 -31.332682 141.004639 28.616043 -28.570946 7.056081 -13.432776 -22.614471 -52.058125 27.787573 -15.153851 68.682541 -7.460762 -8.597018 -18.516159 45.428337 -14.624543 -30.651400 -9.831705 15.019333 56.805157 5.529055 2.269469 -33.276276 -4.975020 17.154974 
7.644581 45.123501 16.299417 13.588062 -1.337743 -46.907333 8.908429 -1.681382 22.743582 -4.476654 -2.001535 43.898125 8.871187 -0.134122 -0.133275 -11.184353 7.538028 10.355358 -13.052712 -3.958907 -10.337433 -11.945571 -5.737572 -54.129810 -96.943047 -19.201452 -46.029621 0.977300 -14.683200 10.807200 -8.542320 7.309598 10.244925 82.058632 41.920303 -32.560543 140.270721 33.609631 -26.759052 8.436909 -8.903158 -26.232620 -51.995998 29.661507 -15.638330 69.813744 -7.610895 -8.708779 -18.728752 45.704300 -16.046974 -31.103985 -9.435772 14.387211 57.595135 5.713689 2.289007 -34.194309 -3.442344 17.309454 
6.982260 44.884689 16.501293 13.696570 -1.363334 -48.300205 12.344278 -2.903563 3.091800 -4.317949 -3.907574 42.147804 8.956424 -0.143188 -0.133045 -14.454035 12.664023 33.544899 -15.254114 11.162312 -11.580444 3.035168 -0.749045 -39.573071 -55.369736 -17.293097 -36.782349 0.977300 -14.683200 10.807200 -9.074121 8.576341 10.219770 87.552895 44.171112 -26.461052 131.673691 40.621548 -21.022945 6.406268 3.617924 -30.441368 -51.094219 30.839735 -16.026838 70.877815 -7.681334 -8.831010 -19.561550 46.574677 -17.294964 -30.855944 -9.003781 13.830661 58.212173 5.756445 2.361717 -35.715023 -1.967007 17.393173 
11.925210 44.774632 22.483116 13.647149 -1.322116 -48.368542 10.843575 -5.775741 -48.407551 2.977492 6.443902 35.198551 8.817487 -0.128445 -0.133317 -8.132539 5.776703 62.988476 -14.449747 20.704597 -7.176023 -1.423710 -0.506801 -21.559940 -6.165140 -4.725327 -23.722614 0.977300 -14.683200 10.807200 -8.872226 6.641798 10.269002 80.361519 58.656086 -15.017554 109.497360 38.450230 -12.710774 0.718741 15.180150 -32.011902 -49.199890 19.920666 -10.121872 75.439056 -7.379132 -9.631639 -36.649113 50.923115 0.592979 -24.762436 -19.336817 16.831556 44.132183 5.529443 0.525794 -27.974672 -2.609941 26.205067 
11.795224 44.703129 21.733877 13.317090 -1.257486 -37.541260 10.139325 -4.953328 -63.409466 6.458887 9.582945 12.126442 8.564734 -0.101583 -0.133938 -6.788589 3.214410 86.635056 -21.940153 9.669230 -5.737346 2.276538 -20.948780 -8.557399 -14.901302 9.050750 -56.834442 0.977300 -14.683200 10.807200 -8.673521 4.162654 10.276167 48.681717 49.094883 -30.592365 110.553673 30.485180 -15.059975 1.735599 1.081339 -31.114281 -52.749870 16.678757 -11.447804 73.666756 -7.251709 -9.408923 -32.047188 43.183781 -0.569656 -22.586847 -18.637289 16.358891 49.070938 5.430097 1.309945 -28.456402 -13.690754 21.993179 
10.871099 44.693344 20.143417 13.090971 -1.224720 -29.724514 9.808886 -4.348428 -65.844536 6.000611 9.135933 -5.742628 8.412618 -0.081687 17.576485 -7.205408 3.053175 79.700279 -25.724615 0.712189 -5.846001 -3.210003 -37.813923 2.395155 -42.258484 15.571022 -72.314552 0.957911 -14.696532 10.831262 -8.677822 2.578957 10.195307 33.933941 38.484821 -37.304226 118.853653 23.535872 -20.233152 3.694330 -15.601627 -29.914059 -55.750256 16.039110 -12.532664 71.520630 -7.260625 -9.091955 -26.478609 36.436821 -3.274941 -22.146152 -15.931561 15.536070 53.738430 5.315412 2.008965 -29.473366 -22.517384 18.135317 
10.781906 44.741398 19.751553 13.000004 -1.217265 -26.583595 9.366921 -4.857996 -67.050735 3.694080 8.171730 -13.119215 8.354671 -0.075405 41.022232 -7.406735 3.139711 56.175468 -24.196440 -1.708783 -6.318117 -18.557169 -46.157917 13.747077 -68.787453 16.910704 -61.907524 0.946820 -14.708750 10.868277 -8.763638 1.614078 10.068063 37.699894 33.826279 -31.295074 124.828186 18.612585 -23.892923 4.526905 -24.131039 -28.884830 -56.586876 14.995755 -12.636233 70.575684 -7.234411 -8.963140 -24.972660 34.130177 -3.385401 -21.585825 -15.313098 15.246422 54.584034 5.269789 2.133465 -29.284859 -26.522215 17.359398 
11.037728 44.825153 19.881750 12.940725 -1.212164 -24.665918 9.016075 -5.746344 -66.609695 1.071201 7.343698 -11.662017 8.321288 -0.073345 48.998661 -7.516636 3.162547 41.540672 -20.518587 -0.591150 -7.043023 -35.808342 -48.372494 27.039520 -89.746727 17.682663 -41.687614 0.977300 -14.683200 10.807200 -8.791672 0.746672 9.950388 47.226852 32.652531 -22.739296 125.223770 15.254560 -24.360737 4.517940 -20.758024 -27.985571 -56.766281 13.545084 -12.515936 70.310074 -7.222134 -8.925874 -24.993864 33.209709 -2.595004 -20.530203 -15.515441 15.094642 53.917484 5.240614 2.069433 -28.634222 -28.686855 17.522001 
11.220428 44.926041 19.973137 12.841993 -1.193547 -21.683659 8.897940 -6.355830 -64.025093 -0.670341 6.995509 -3.929336 8.264235 -0.068701 28.568657 -7.632933 2.944484 52.657516 -17.251297 1.211136 -7.813482 -48.101383 -46.643391 40.659904 -102.144478 20.468700 -25.243071 1.042778 -14.622108 10.644563 -8.654188 -0.307689 9.889470 52.512550 32.898144 -19.244635 118.818459 13.229373 -21.013933 3.850017 -4.727128 -27.130140 -56.972229 12.222707 -12.147031 69.779221 -7.204981 -8.837651 -24.650980 30.989426 -2.032897 -19.007883 -15.450639 14.809035 53.359856 5.188147 2.025296 -28.105597 -31.168318 17.218004 
11.198994 45.039665 19.927460 12.761946 -1.173878 -20.007961 8.909896 -6.341022 -58.488819 -1.669773 6.232065 3.922085 8.220749 -0.065017 -0.134811 -7.748498 2.845400 71.913818 -14.543887 1.418153 -8.036017 -52.952358 -42.332550 40.380985 -109.987846 19.726418 -16.217947 0.977300 -14.683200 10.807200 -8.369691 -0.885767 9.897418 54.556610 34.102779 -18.152178 112.516632 13.217897 -17.453442 2.297601 12.743507 -26.051970 -56.967754 11.551204 -12.006711 69.011726 -7.188563 -8.725268 -23.971695 29.784382 -1.938847 -18.288942 -15.205084 14.571366 53.272038 5.159096 2.041107 -27.708168 -32.148518 16.636604 
10.929686 45.184620 19.717321 12.741327 -1.161442 -22.167982 8.902355 -5.543889 -49.567982 -2.330032 4.179067 6.411208 8.214424 -0.064750 -14.499660 -7.824327 3.223004 78.355400 -12.038095 -1.458950 -7.219159 -49.906551 -36.487793 14.316348 -117.577232 10.027479 -14.979079 0.663935 -14.978731 11.601532 -7.976244 -0.326558 9.971025 56.449780 36.061562 -15.315597 112.914360 15.723031 -17.173780 -0.287887 20.481152 -24.495007 -56.379250 12.690354 -12.513836 68.617523 -7.196448 -8.674424 -23.661987 31.539190 -2.843463 -19.338680 -15.127359 14.563213 53.203190 5.176164 2.013183 -30.938114 -24.803679 16.335499 
